<svg width="64" height="64" viewBox="0 0 64 64" fill="none" xmlns="http://www.w3.org/2000/svg">
  <!-- Stack bars -->
  <rect x="8" y="52" width="48" height="8" rx="2" fill="#d4643a" />
  <rect x="12" y="42" width="40" height="8" rx="2" fill="#e07356" />
  <rect x="16" y="32" width="32" height="8" rx="2" fill="#f47642" />

  <!-- Little lobster sitting on top -->
  <!-- Body -->
  <ellipse cx="32" cy="28" rx="8" ry="5" fill="#f47642" />

  <!-- Head -->
  <circle cx="32" cy="20" r="7" fill="#f47642" />
  <circle cx="32" cy="19" r="5" fill="#f4a261" />

  <!-- Eyes -->
  <circle cx="30" cy="18" r="2" fill="white" />
  <circle cx="34" cy="18" r="2" fill="white" />
  <circle cx="30.5" cy="18.5" r="1" fill="#3d3a37" />
  <circle cx="34.5" cy="18.5" r="1" fill="#3d3a37" />

  <!-- Smile -->
  <path d="M30 22 Q32 24 34 22" stroke="#d4643a" strokeWidth="1.5" strokeLinecap="round" fill="none" />

  <!-- Claws resting on the bar -->
  <ellipse cx="20" cy="32" rx="4" ry="3" fill="#f47642" />
  <path d="M24 28 Q22 30 20 32" stroke="#f47642" strokeWidth="3" strokeLinecap="round" />

  <ellipse cx="44" cy="32" rx="4" ry="3" fill="#f47642" />
  <path d="M40 28 Q42 30 44 32" stroke="#f47642" strokeWidth="3" strokeLinecap="round" />

  <!-- Antennae -->
  <path d="M28 14 Q24 8 20 10" stroke="#f47642" strokeWidth="1.5" strokeLinecap="round" />
  <path d="M36 14 Q40 8 44 10" stroke="#f47642" strokeWidth="1.5" strokeLinecap="round" />
</svg>
